<?xml version="1.0" encoding="UTF-8"?>
<svg xmlns="http://www.w3.org/2000/svg" version="1.1" viewBox="0 0 490.5 342.3">
  <defs>
    <style>
      .cls-1 {
        fill: #070102;
      }

      .cls-2 {
        fill: #040000;
      }
    </style>
  </defs>
  <!-- Generator: Adobe Illustrator 28.7.1, SVG Export Plug-In . SVG Version: 1.2.0 Build 142)  -->
  <g>
    <g id="_レイヤー_1" data-name="レイヤー_1">
      <g id="Logo">
        <g id="Group_214">
          <g id="Group_213">
            <path id="Path_202" d="M34.2,318.5c.3,0,.5,0,.8.1.3.1.6.3.8.5l4.4,4.5c-1.8,2.5-4.3,4.4-7.2,5.6-3.2,1.3-6.7,1.9-10.1,1.9-3.3,0-6.6-.6-9.6-1.9-2.7-1.2-5.2-2.9-7.2-5.1-2-2.2-3.6-4.8-4.5-7.6-1.1-3.1-1.6-6.3-1.6-9.6,0-3.3.6-6.6,1.9-9.7,1.2-2.8,2.9-5.4,5.1-7.6,2.2-2.2,4.8-3.9,7.7-4.9,3.2-1.2,6.6-1.8,10-1.7,3.2,0,6.5.7,9.5,1.9,1.3.5,2.6,1.2,3.7,2,1.1.7,2.1,1.6,3.1,2.5l-3.7,4.9-.8.8c-.4.3-.9.4-1.3.4-.4,0-.7,0-1.1-.3-.4-.2-.7-.4-1.1-.7-.4-.3-.9-.6-1.3-.8-.5-.3-1.1-.6-1.6-.8-.7-.3-1.3-.4-2.3-.7-1-.2-1.9-.3-2.9-.3-1.9,0-3.7.4-5.5,1.1-1.6.7-3.1,1.7-4.3,3.1-1.2,1.4-2.2,3-2.8,4.8-.7,2-1,4.1-.9,6.3,0,2.2.3,4.3.9,6.4.6,1.7,1.5,3.4,2.7,4.8,1.1,1.3,2.5,2.3,4,2.9,1.5.7,3.1,1.1,4.8,1.1.9,0,1.8,0,2.7-.1.8,0,1.5-.3,2.3-.5.7-.3,1.4-.6,2-.9.7-.4,1.3-.9,1.9-1.5.2-.2.5-.4.8-.5.3-.4.5-.4.9-.4Z"/>
            <path id="Path_203" d="M89.5,330.8h-8.5c-.8,0-1.7-.2-2.4-.7-.6-.4-1.1-1-1.3-1.7l-2.8-8.3h-18l-2.8,8.3c-.2.6-.7,1.2-1.2,1.6-.6.5-1.5.7-2.3.7h-8.5l18.2-47.2h11.2l18.4,47.3ZM59.3,312.7h12.9l-4.4-12.9c-.4-1-.7-1.9-.9-2.9-.5-1.2-.8-2.4-1.1-3.6-.4,1.3-.7,2.5-1.1,3.6s-.7,2.1-1.1,2.9l-4.4,12.9Z"/>
            <path id="Path_204" d="M141.4,283.5v8.7h-13.3v38.5h-10.9v-38.5h-13.3v-8.7h37.6Z"/>
            <path id="Path_205" d="M157,296.7c2.1,0,4.2.4,6.1,1.1,3.6,1.3,6.5,4.2,7.9,7.9.8,2.1,1.1,4.3,1.1,6.5,0,.6,0,1.3-.1,1.9,0,.4-.1.9-.4,1.2-.1.3-.4.5-.7.5-.3.1-.7.2-1.1.1h-19.3c0,2.3,1,4.4,2.5,6.1,1.5,1.3,3.4,1.9,5.3,1.9,1,0,2.1-.1,3.1-.4.8-.2,1.5-.5,2.3-.9.6-.4,1.2-.7,1.9-.9.5-.3,1.1-.4,1.7-.4.7,0,1.5.3,1.9.9l2.9,3.6c-1,1.1-2.1,2.1-3.3,2.9-1.1.8-2.4,1.3-3.7,1.7-1.2.4-2.5.7-3.7.9-1.2.2-2.4.2-3.6.3-2.3,0-4.5-.4-6.7-1.2-2-.8-3.9-1.9-5.5-3.5-1.6-1.5-2.9-3.5-3.6-5.6-1-2.5-1.4-5.2-1.3-7.9,0-4.3,1.6-8.5,4.5-11.7,1.5-1.5,3.3-2.7,5.2-3.6,2.1-1.1,4.4-1.6,6.7-1.5ZM157.3,303.6c-1.7,0-3.3.5-4.5,1.6-1.1,1.3-1.9,2.9-2.1,4.7h12.5c0-.8-.1-1.5-.3-2.3-.2-.7-.6-1.4-1.1-2-.5-.6-1.1-1.1-1.9-1.5-.8-.4-1.7-.6-2.7-.5Z"/>
            <path id="Path_206" d="M205.4,305.1c-.2.4-.6.7-.9.9-.3.3-.7.3-1.2.3-.5,0-.9-.1-1.3-.4-.4-.3-.9-.6-1.3-.8-.5-.3-1.1-.5-1.7-.8-.8-.3-1.7-.4-2.5-.4-1.1,0-2.2.2-3.2.7-.9.4-1.7,1.1-2.3,2-.6.9-1.1,2-1.3,3.1-.3,1.4-.4,2.7-.4,4.1-.1,2.6.5,5.2,1.9,7.5,1.2,1.7,3.1,2.7,5.2,2.5.9,0,1.9,0,2.8-.4.7-.3,1.2-.7,1.7-.9.5-.4.9-.7,1.3-.9.4-.3.9-.4,1.5-.4.7,0,1.5.3,1.9.9l2.9,3.6c-1,1.1-2.1,2.1-3.3,2.9-1.1.7-2.2,1.3-3.5,1.7-1.2.4-2.4.7-3.6.9-1.1.1-2.3.2-3.5.3-2,0-4-.4-5.9-1.2-1.8-.8-3.5-1.9-4.9-3.3-1.5-1.6-2.6-3.4-3.3-5.5-.8-2.4-1.2-4.8-1.2-7.3,0-2.3.4-4.6,1.1-6.8,1.3-4.1,4.4-7.4,8.4-9.1,2.3-.9,4.7-1.4,7.2-1.3,2.4,0,4.7.4,6.9,1.2,2,.9,3.8,2.1,5.3,3.7l-2.7,3.2Z"/>
            <path id="Path_207" d="M214.6,330.8v-48.5h10v17.8c1.2-1,2.5-1.9,4-2.5,1.6-.7,3.3-1,5.1-.9,1.7,0,3.4.3,4.9.9,1.4.6,2.6,1.5,3.6,2.7,1,1.2,1.7,2.6,2.3,4,.5,1.6.8,3.3.8,5.1v21.3h-10v-21.3c0-1.4-.4-2.8-1.2-3.9-.8-.9-2.1-1.4-3.3-1.3-1.1,0-2.1.2-3.1.7-1,.5-1.9,1.2-2.8,1.9v24h-10.3Z"/>
            <path id="Path_208" d="M280.6,322h17.4v8.8h-28.4v-47.1h10.9v38.4Z"/>
            <path id="Path_209" d="M320.6,296.7c2.4,0,4.7.4,6.9,1.2,2,.8,3.8,1.9,5.3,3.5,1.5,1.6,2.7,3.4,3.5,5.5,1.6,4.7,1.6,9.7,0,14.4-.8,2-1.9,3.9-3.5,5.5-1.5,1.5-3.3,2.7-5.3,3.5-2.2.8-4.6,1.2-6.9,1.2-2.4,0-4.8-.4-7.1-1.2-2-.8-3.9-2-5.5-3.5-1.5-1.6-2.7-3.4-3.5-5.5-1.6-4.7-1.6-9.7,0-14.4,1.5-4.2,4.8-7.4,8.9-8.9,2.3-.8,4.7-1.2,7.1-1.2ZM320.6,323.8c2,.1,3.9-.8,5.1-2.4,1.1-1.6,1.6-4.1,1.6-7.5s-.5-5.7-1.6-7.5c-1.1-1.6-3.1-2.5-5.1-2.4-2.4,0-4.1.8-5.2,2.4-1.1,1.6-1.6,4.1-1.6,7.5s.5,5.9,1.6,7.5c1.2,1.6,3.2,2.5,5.2,2.4Z"/>
            <path id="Path_210" d="M354.4,297.2v21.3c0,1.4.4,2.8,1.2,3.9.8.9,2.1,1.4,3.3,1.3,1.1,0,2.1-.2,3.1-.7,1-.5,2-1.1,2.8-1.9v-24h10v33.6h-6.3c-1.1.1-2.2-.6-2.4-1.7l-.7-2c-.6.6-1.3,1.2-2,1.7-.7.5-1.5,1-2.3,1.3-.8.4-1.6.7-2.5.8-1,.2-1.9.3-2.9.3-1.7,0-3.4-.3-4.9-.9-1.4-.6-2.6-1.5-3.6-2.7-1-1.2-1.7-2.6-2.3-4-.5-1.6-.8-3.3-.8-5.1v-21.3h10.3Z"/>
            <path id="Path_211" d="M384.9,330.8v-33.6h6.3c.6,0,1.1.1,1.6.4.4.3.7.7.9,1.2l.5,2c.6-.6,1.3-1.2,2-1.7.7-.5,1.5-1,2.3-1.3.8-.4,1.6-.7,2.5-.8,1-.2,1.9-.3,2.9-.3,1.7,0,3.4.3,4.9.9,1.4.6,2.6,1.5,3.6,2.7,1,1.2,1.7,2.6,2.3,4,.5,1.6.8,3.3.8,5.1v21.3h-10.3v-21.3c0-1.4-.4-2.8-1.2-3.9-.8-.9-2.1-1.4-3.3-1.3-1.1,0-2.1.2-3.1.7-1,.5-1.9,1.2-2.8,1.9v24h-10Z"/>
            <path id="Path_212" d="M437.5,296.5c1.3,0,2.7.1,4,.4,1.2.3,2.4.7,3.5,1.2h10.1v3.6c0,.5-.1,1-.5,1.3-.5.4-1,.6-1.6.8l-2.4.5c.3,1,.4,2,.4,3.1,0,1.6-.4,3.1-1.1,4.5-.7,1.4-1.7,2.6-2.9,3.5-1.3.9-2.7,1.7-4.3,2.1-1.7.5-3.5.8-5.3.8-1,0-2,0-2.9-.1-.6.2-1,.8-1.1,1.5,0,.6.4,1.1.9,1.2.8.3,1.6.5,2.4.5,1.1.1,2.2.2,3.3.1,1.2,0,2.5,0,3.9.1,1.3,0,2.6.3,3.9.7,1.2.3,2.3.7,3.3,1.3,1,.7,1.8,1.5,2.4,2.5.6,1.2.9,2.6.9,4,0,1.5-.4,3-1.1,4.4-.8,1.5-1.9,2.8-3.2,3.9-1.6,1.1-3.3,2-5.2,2.7-2.3.7-4.7,1.1-7.1,1.1-2.3,0-4.6-.2-6.8-.8-1.7-.5-3.3-1.1-4.8-2-1.1-.7-2.1-1.7-2.8-2.8-.6-1-1-2.2-.9-3.3,0-1.4.4-2.7,1.3-3.7,1-1.1,2.3-1.9,3.7-2.4-.7-.5-1.3-1.1-1.9-1.9-.5-.9-.7-1.9-.7-2.9,0-.5.1-1.1.3-1.6.2-.6.4-1.1.8-1.6.4-.5.8-1,1.3-1.5.6-.6,1.2-1,2-1.2-1.7-.9-3.1-2.2-4.1-3.7-1-1.6-1.5-3.4-1.5-5.3,0-1.6.4-3.1,1.1-4.5.7-1.4,1.7-2.5,2.9-3.5,1.3-1,2.8-1.7,4.4-2.1,1.7-.6,3.4-.8,5.2-.8ZM445,331.8c0-.5-.2-1-.5-1.3-.4-.3-.9-.6-1.3-.8-.6-.2-1.3-.4-2-.4-.8-.1-1.7-.2-2.5-.1h-2.8c-.9,0-1.9-.1-2.8-.3-.6.4-1.2.9-1.6,1.5-.4.5-.6,1.2-.5,1.9,0,.5.1.9.3,1.3.3.4.6.8,1.1,1.1.7.3,1.4.6,2.1.7,1.1.2,2.2.3,3.3.3,1.2,0,2.4,0,3.6-.3.8-.1,1.5-.3,2.3-.7.5-.2.9-.6,1.2-1.1.1-.6.2-1.1.3-1.7ZM437.5,312.1c1.3.1,2.6-.3,3.6-1.2.8-.9,1.2-2,1.1-3.2.3-2.2-1.3-4.2-3.5-4.4-.4,0-.8,0-1.1,0-1.3-.1-2.6.3-3.6,1.2-.8.9-1.2,2-1.1,3.2,0,.6.1,1.2.3,1.7.2.5.5,1,.8,1.5.4.4.9.7,1.5.9.7.2,1.4.3,2.1.3Z"/>
            <path id="Path_213" d="M475.5,296.7c2.1,0,4.2.4,6.1,1.1,3.6,1.3,6.5,4.2,7.9,7.9.8,2.1,1.1,4.3,1.1,6.5,0,.6,0,1.3-.1,1.9,0,.4-.1.9-.4,1.2-.1.3-.4.5-.7.5-.3.1-.7.2-1.1.1h-19.3c0,2.3,1,4.4,2.5,6.1,1.5,1.3,3.4,1.9,5.3,1.9,1,0,2.1-.1,3.1-.4.8-.2,1.5-.5,2.3-.9.6-.4,1.2-.7,1.9-.9.5-.3,1.1-.4,1.7-.4.7,0,1.5.3,1.9.9l2.9,3.6c-1,1.1-2.1,2.1-3.3,2.9-1.1.8-2.4,1.3-3.7,1.7-1.2.4-2.5.7-3.7.9-1.2.2-2.4.2-3.6.3-2.3,0-4.5-.4-6.7-1.2-2-.8-3.9-1.9-5.5-3.5-1.6-1.5-2.9-3.5-3.6-5.6-1-2.5-1.4-5.2-1.3-7.9,0-4.3,1.6-8.5,4.5-11.7,1.5-1.5,3.3-2.7,5.2-3.6,2.1-1.1,4.4-1.6,6.7-1.5ZM475.7,303.6c-1.7,0-3.3.5-4.5,1.6-1.1,1.3-1.9,2.9-2.1,4.7h12.5c0-.8-.1-1.5-.3-2.3-.2-.7-.6-1.4-1.1-2-.5-.6-1.1-1.1-1.9-1.5-.8-.4-1.7-.6-2.7-.5Z"/>
          </g>
        </g>
        <g id="Group_215">
          <path id="Path_214" class="cls-2" d="M98,214.1V18.7c0-1.1.8-2,1.9-2,0,0,0,0,0,0h290.7c1.1,0,2,.8,2,1.9,0,0,0,0,0,0v33.2c0,1.1.8,2,1.9,2,0,0,0,0,0,0h12.7c1.1,0,2-.8,2-1.9,0,0,0,0,0,0V1.9c0-1.1-.8-2-1.9-2,0,0,0,0,0,0H83.2c-1.1,0-2,.8-2,1.9,0,0,0,0,0,0v228.9c0,1.1.8,2,1.9,2,0,0,0,0,0,0h192.3c1.1,0,2-.8,2-1.9,0,0,0,0,0,0v-12.7c0-1.1-.8-2-1.9-2,0,0,0,0,0,0H100c-1.1,0-2-.9-2-2,0,0,0,0,0-.1Z"/>
          <path id="Path_215" class="cls-2" d="M407.9,79.2h-107.2c-1.1,0-2,.8-2,1.9,0,0,0,0,0,0v149.7c0,1.1.8,2,1.9,2,0,0,0,0,0,0h12.6c1.1,0,2-.8,2-1.9,0,0,0,0,0,0V98c0-1.1.8-2,1.9-2,0,0,0,0,0,0h73.6c1.1,0,2,.8,2,1.9,0,0,0,0,0,0v64.6c0,1.1-.8,2-1.9,2,0,0,0,0,0,0h-40.2c-1.1,0-2,.8-2,1.9,0,0,0,0,0,0v12.7c0,1.1.8,2,1.9,2,0,0,0,0,0,0h40.2c1.1,0,2,.8,2,1.9,0,0,0,0,0,0v47.4c0,1.1.8,2,1.9,2,0,0,0,0,0,0h12.9c.9,0,1.7-.8,1.7-1.7V81.2c.2-.9-.3-1.8-1.2-2-.2,0-.3,0-.5,0Z"/>
          <path id="Path_216" class="cls-1" d="M169.7,111c-11.9-.8-21.5-10.2-22.5-22.1-.2-1.2-1.2-2.1-2.4-2.1h-9.3c-.6,0-1.1.3-1.5.7-.4.4-.6.9-.5,1.5,1,19.5,16.6,35,36.1,36h.1c.5,0,.9-.2,1.2-.5.4-.3.6-.8.5-1.3v-9.9c.1-1.1-.7-2-1.7-2.1Z"/>
          <path id="Path_217" class="cls-1" d="M142.4,73.6c5.8-1.2,9.6-6.8,8.4-12.7s-6.8-9.6-12.7-8.4c-5.8,1.2-9.6,6.8-8.4,12.7.4,2.1,1.4,4,2.9,5.5,2,2,4.7,3.2,7.6,3.2.7-.1,1.5-.1,2.1-.3Z"/>
          <path id="Path_218" class="cls-1" d="M185,111c11.9-.8,21.5-10.2,22.5-22.1.2-1.2,1.2-2.1,2.4-2.1h9.3c.6,0,1.1.3,1.5.7.4.4.6.9.5,1.5-1,19.5-16.6,35-36.1,36h-.1c-.5,0-.9-.2-1.2-.5-.4-.3-.6-.8-.5-1.3v-9.9c-.1-1,.6-2,1.6-2.1,0,0,0,0,.1,0Z"/>
          <path id="Path_219" class="cls-1" d="M212.2,73.6c-5.8-1.2-9.6-6.8-8.4-12.7s6.8-9.6,12.7-8.4c5.8,1.2,9.6,6.8,8.4,12.7-.4,2.1-1.4,4-2.9,5.5-2,2-4.7,3.2-7.6,3.2-.7-.1-1.3-.1-2.1-.3Z"/>
        </g>
      </g>
    </g>
  </g>
</svg>